<?xml version="1.0" standalone="no"?>
<!DOCTYPE svg PUBLIC "-//W3C//DTD SVG 20010904//EN"
 "http://www.w3.org/TR/2001/REC-SVG-20010904/DTD/svg10.dtd">
<svg version="1.0" xmlns="http://www.w3.org/2000/svg"
 width="900.000000pt" height="900.000000pt" viewBox="0 0 900.000000 900.000000"
 preserveAspectRatio="xMidYMid meet">
<metadata>
Created by potrace 1.10, written by Peter Selinger 2001-2011
</metadata>
<g transform="translate(0.000000,900.000000) scale(0.100000,-0.100000)"
fill="#000000" stroke="none">
<path d="M0 8980 c0 -20 7 -20 4500 -20 4493 0 4500 0 4500 20 0 20 -7 20
-4500 20 -4493 0 -4500 0 -4500 -20z"/>
<path d="M720 7626 c0 -9 6 -16 13 -16 6 0 24 -6 38 -14 14 -7 38 -16 54 -20
41 -10 102 -55 162 -119 49 -52 88 -122 129 -232 18 -48 19 -130 22 -2205 l3
-2155 -22 -64 c-30 -89 -83 -177 -149 -242 -53 -53 -142 -109 -174 -109 -7 0
-24 -9 -37 -19 -43 -35 -14 -41 121 -25 100 12 230 15 643 12 415 -2 517 0
517 10 0 7 -8 15 -17 18 -55 17 -143 63 -175 92 -42 38 -111 135 -123 172 -4
14 -11 30 -15 35 -5 6 -15 30 -24 55 -14 40 -16 273 -16 2216 0 2294 -2 2167
39 2269 55 136 138 230 249 282 40 18 84 38 98 43 15 6 22 15 18 21 -7 11 -27
10 -154 -11 -73 -12 -920 -11 -990 1 -30 5 -90 12 -132 15 -68 6 -78 4 -78
-10z m1037 -100 c3 -2 -25 -62 -62 -132 -36 -70 -71 -150 -76 -178 -11 -51
-16 -552 -17 -1646 0 -311 0 -574 0 -585 0 -11 0 -409 -1 -885 -2 -1061 1
-1204 24 -1290 25 -94 71 -189 117 -238 22 -24 38 -48 36 -54 -6 -16 -51 -27
-112 -28 -88 -3 -452 13 -536 22 -14 2 -26 10 -28 18 -1 9 18 56 43 105 25 49
45 97 45 108 0 10 5 28 11 39 6 12 13 41 15 66 3 25 7 49 10 53 2 4 4 74 4
156 0 81 0 1012 -1 2068 0 1267 -4 1949 -11 2005 -11 87 -47 200 -93 285 -20
39 -34 103 -22 105 1 1 88 3 192 7 105 3 192 7 195 10 6 5 261 -5 267 -11z"/>
<path d="M3805 7596 c20 -19 46 -41 58 -49 12 -8 35 -39 50 -68 l28 -54 -5 46
c-7 66 14 85 86 74 29 -4 62 -8 73 -9 11 -1 42 -12 68 -24 27 -12 55 -22 63
-22 8 0 26 -13 41 -30 14 -16 32 -30 39 -30 8 0 22 -12 31 -27 10 -15 26 -36
36 -45 9 -10 17 -25 17 -33 0 -9 -27 -53 -59 -98 -59 -82 -77 -103 -122 -143
-13 -12 -42 -43 -64 -69 -22 -27 -84 -98 -139 -159 -54 -61 -122 -138 -150
-170 -28 -33 -78 -87 -111 -121 -33 -34 -94 -99 -135 -145 -41 -47 -96 -105
-122 -130 -27 -26 -48 -54 -48 -63 0 -9 -5 -17 -11 -17 -12 0 -79 -71 -80 -85
0 -5 -16 -23 -35 -40 -65 -57 -413 -421 -453 -475 -14 -19 -34 -41 -44 -49
-10 -7 -33 -29 -50 -48 -18 -19 -54 -58 -82 -87 -116 -120 -147 -166 -112
-166 17 0 270 262 457 474 19 22 52 57 73 78 20 21 74 79 118 130 45 51 91
103 103 114 48 48 155 164 221 238 39 44 94 105 124 135 29 31 65 72 80 91 14
19 44 53 66 75 22 22 68 70 101 106 33 37 119 129 191 205 71 77 174 186 228
244 54 58 106 111 117 118 10 7 18 23 18 36 0 31 -51 109 -91 136 -19 13 -36
27 -39 30 -14 17 -115 71 -148 80 -159 40 -202 49 -237 50 -22 1 -58 7 -80 15
-22 8 -55 15 -73 15 l-33 0 36 -34z"/>
<path d="M4329 7616 c8 -10 37 -29 65 -43 72 -36 102 -61 145 -118 70 -92 106
-187 115 -305 8 -92 8 -2454 0 -2474 -11 -27 46 -95 148 -177 118 -95 201
-162 208 -169 3 -3 41 -36 85 -75 44 -38 84 -75 88 -82 10 -17 37 -17 37 0 0
7 -9 30 -21 52 -15 27 -24 70 -30 139 -5 56 -9 736 -8 1511 0 776 -3 1434 -7
1463 -7 54 -21 65 -45 35 -15 -17 -14 46 -18 -2002 -1 -601 -5 -951 -12 -962
-14 -28 -45 -23 -71 11 -12 16 -31 33 -42 36 -12 4 -35 18 -53 33 -130 106
-164 138 -169 161 -3 14 -10 36 -15 50 -5 14 -11 561 -13 1240 -5 1133 -8
1279 -26 1305 -3 6 -12 30 -19 55 -7 25 -32 84 -57 133 -24 48 -44 91 -44 96
0 23 15 23 855 15 187 -2 349 -4 360 -4 11 0 85 1 165 4 80 2 186 0 235 -5 50
-5 151 -11 225 -13 74 -3 149 -10 165 -15 17 -5 66 -15 110 -21 74 -10 200
-42 235 -59 8 -4 48 -18 88 -30 39 -13 72 -27 72 -31 0 -4 15 -11 33 -14 17
-3 54 -21 80 -40 26 -19 58 -37 71 -40 13 -3 31 -17 40 -31 9 -14 23 -25 31
-25 37 0 229 -197 279 -285 9 -17 28 -48 41 -70 14 -22 28 -47 31 -55 3 -8 17
-43 30 -76 62 -153 88 -331 80 -559 -5 -166 -7 -180 -25 -245 -7 -25 -22 -76
-33 -115 -10 -38 -35 -102 -54 -141 -19 -39 -34 -74 -34 -78 0 -6 -32 -56
-104 -161 -39 -57 -257 -270 -297 -290 -19 -10 -43 -25 -54 -35 -42 -38 -240
-137 -298 -150 -23 -4 -67 -17 -97 -28 -30 -11 -82 -28 -115 -38 -78 -22 -91
-31 -124 -80 -21 -31 -26 -46 -19 -63 4 -12 77 -91 160 -174 84 -84 176 -179
203 -213 104 -127 152 -185 202 -251 62 -81 209 -271 255 -331 18 -23 50 -63
71 -89 21 -25 46 -58 55 -72 9 -14 32 -45 52 -67 19 -23 87 -106 150 -184 113
-141 187 -230 234 -280 13 -14 51 -59 84 -100 33 -41 114 -131 181 -200 66
-68 121 -127 121 -131 0 -3 16 -23 36 -43 29 -30 34 -40 24 -51 -7 -8 -24 -15
-39 -15 -37 0 -152 32 -251 70 -47 18 -103 39 -124 47 -22 8 -52 23 -67 34
-15 10 -31 19 -35 19 -15 0 -149 89 -173 114 -14 14 -31 26 -38 26 -37 0 -343
324 -401 425 -9 16 -31 43 -47 60 -17 16 -36 41 -43 55 -6 14 -31 50 -54 81
-92 122 -145 196 -188 264 -11 17 -42 62 -70 100 -65 89 -159 226 -186 272
-12 19 -26 38 -31 42 -6 3 -50 65 -98 136 -48 72 -108 151 -131 177 -24 26
-44 51 -44 55 0 5 -33 43 -72 86 -40 43 -100 107 -133 144 -33 37 -80 86 -104
109 -24 23 -41 47 -37 52 9 15 114 30 286 43 167 12 191 15 320 52 95 26 85
22 232 107 85 50 124 80 190 150 46 48 92 100 104 116 61 84 104 153 117 189
8 22 34 92 57 155 23 63 46 138 51 165 35 209 41 503 14 621 -8 36 -15 78 -15
94 0 16 -4 32 -10 35 -5 3 -10 15 -10 26 0 11 -9 37 -19 57 -10 20 -26 53 -35
72 -8 19 -21 46 -29 60 -8 14 -22 41 -32 60 -39 76 -163 206 -277 291 -75 57
-243 133 -413 188 -60 19 -188 39 -300 47 -33 2 -78 6 -100 9 -22 3 -191 7
-375 10 -184 3 -364 8 -400 10 -83 6 -163 -11 -191 -41 l-21 -22 74 -6 c40 -3
172 -8 293 -11 611 -15 799 -31 1008 -85 74 -19 238 -83 265 -103 7 -5 30 -19
52 -31 110 -59 273 -230 334 -351 86 -170 126 -352 126 -576 0 -313 -91 -617
-249 -824 -128 -170 -275 -269 -496 -338 -197 -61 -619 -79 -868 -36 -58 10
-80 10 -88 2 -13 -13 2 -20 153 -83 86 -36 156 -90 298 -232 94 -94 275 -307
341 -403 19 -27 37 -52 40 -55 3 -3 26 -34 51 -70 24 -36 60 -87 79 -115 20
-27 74 -107 121 -176 84 -124 123 -180 267 -389 124 -180 265 -375 286 -395 6
-5 28 -32 49 -60 91 -118 334 -331 458 -401 299 -170 570 -245 943 -259 143
-5 185 0 172 23 -4 5 -24 12 -46 16 -121 19 -270 116 -447 291 -204 202 -446
487 -855 1005 -46 58 -108 137 -139 175 -30 39 -71 91 -90 118 -73 99 -237
303 -324 402 -129 147 -180 196 -262 251 -45 29 -89 57 -98 60 -11 4 -16 16
-14 33 3 26 5 26 98 32 147 10 323 67 498 161 139 74 350 265 458 413 209 286
302 672 253 1040 -18 133 -39 228 -58 264 -6 11 -11 27 -11 36 0 24 -86 197
-133 268 -61 92 -229 256 -332 325 -79 53 -169 102 -270 147 -53 23 -220 75
-244 75 -12 0 -30 4 -40 10 -10 5 -51 14 -92 19 -41 6 -105 16 -144 23 -54 10
-310 13 -1095 13 -564 0 -1054 4 -1090 9 -61 9 -64 8 -51 -8z"/>
<path d="M3855 7192 c-6 -4 -22 -25 -37 -48 -14 -22 -58 -76 -98 -120 -81 -90
-84 -93 -172 -194 -36 -41 -69 -82 -74 -92 -8 -13 -85 -104 -131 -153 -7 -8
-13 -18 -13 -22 0 -5 -15 -23 -32 -39 -18 -16 -58 -61 -88 -99 -30 -37 -63
-75 -72 -84 -10 -8 -18 -21 -18 -27 0 -7 -11 -21 -24 -31 -13 -10 -72 -76
-131 -148 -58 -71 -114 -137 -123 -145 -10 -8 -35 -37 -57 -65 -22 -27 -57
-71 -80 -96 -50 -57 -161 -187 -255 -299 -103 -123 -109 -131 -144 -171 -17
-20 -69 -82 -116 -139 -47 -57 -109 -127 -138 -157 -35 -34 -51 -57 -46 -65 4
-7 54 -62 109 -123 250 -270 352 -382 379 -415 26 -32 102 -115 257 -284 31
-34 73 -81 94 -106 40 -46 145 -161 219 -240 23 -25 94 -103 157 -175 63 -71
131 -148 152 -170 21 -22 63 -67 94 -100 77 -81 191 -213 210 -242 15 -22 53
-33 53 -14 0 12 -53 78 -98 123 -20 20 -50 53 -67 74 -16 20 -38 44 -47 53
-10 8 -30 34 -45 58 -14 23 -39 47 -54 54 -16 6 -40 31 -54 55 -14 25 -64 83
-110 131 -46 47 -96 102 -110 122 -14 20 -54 67 -90 106 -36 38 -65 72 -65 76
0 3 -24 30 -52 60 -80 82 -284 313 -403 453 -27 32 -68 77 -90 100 -22 22 -65
70 -94 106 -30 36 -68 79 -84 95 -51 54 -123 143 -141 177 l-18 33 35 52 c46
69 122 168 171 225 23 25 73 86 113 135 39 48 96 117 125 152 29 35 60 73 68
85 17 24 53 68 129 155 30 34 62 74 71 89 10 15 30 38 45 52 15 14 38 46 51
73 17 32 31 47 44 47 11 0 20 6 20 14 0 8 8 21 18 28 36 27 112 131 112 154 0
19 5 24 25 24 16 0 28 7 33 19 9 23 48 72 136 169 37 43 73 89 78 105 6 15 15
27 22 27 12 0 100 101 146 168 14 20 45 56 68 80 23 24 42 47 42 52 0 10 69
80 79 80 4 0 13 10 18 23 6 12 34 47 61 78 60 66 85 136 37 101z"/>
<path d="M3702 5945 c-12 -15 -22 -34 -22 -41 0 -7 -11 -34 -25 -60 -14 -26
-25 -55 -25 -64 0 -10 -7 -23 -15 -30 -8 -7 -15 -20 -15 -30 0 -10 -12 -43
-26 -75 -48 -104 -87 -425 -56 -456 10 -11 12 -8 12 12 1 93 22 274 35 298 8
17 12 37 9 45 -3 8 4 41 15 74 12 32 21 64 21 70 0 14 75 124 100 147 22 20
66 11 80 -16 6 -10 24 -33 40 -51 17 -18 31 -44 32 -58 1 -14 3 -47 4 -75 1
-27 3 -54 3 -60 2 -21 30 46 42 101 l13 57 -47 42 c-26 22 -47 46 -47 51 0 6
-13 23 -30 39 -16 16 -30 34 -30 39 0 6 -11 24 -23 40 l-23 29 -22 -28z"/>
<path d="M3890 5213 c0 -28 6 -58 15 -69 8 -10 15 -29 15 -42 0 -12 4 -30 9
-40 5 -9 22 -42 37 -72 49 -101 248 -320 290 -320 7 0 22 -13 34 -29 11 -17
29 -33 40 -36 11 -4 20 -13 20 -20 0 -8 12 -21 28 -29 15 -8 56 -42 91 -75 36
-34 68 -61 72 -61 4 0 24 -16 45 -35 22 -19 62 -51 91 -70 28 -19 55 -44 58
-55 4 -11 12 -20 19 -20 17 0 74 -42 161 -120 79 -71 271 -222 355 -280 35
-24 92 -67 125 -95 165 -138 200 -165 208 -165 5 0 21 -12 35 -27 15 -16 40
-37 56 -48 114 -79 301 -251 329 -300 6 -13 30 -49 51 -81 22 -33 45 -73 51
-90 6 -18 15 -38 21 -45 15 -19 64 -171 64 -198 0 -12 6 -34 14 -49 42 -82 47
-433 8 -547 -10 -29 -21 -70 -43 -162 -6 -23 -33 -79 -60 -124 -27 -45 -49
-86 -49 -92 0 -33 -218 -271 -288 -314 -15 -9 -39 -28 -54 -41 -29 -26 -54
-43 -105 -66 -17 -9 -33 -20 -35 -25 -3 -9 -131 -71 -147 -71 -5 0 -22 -6 -38
-14 -26 -13 -60 -24 -188 -60 -27 -8 -81 -20 -119 -26 -84 -15 -402 -21 -506
-9 -41 5 -122 11 -180 14 -94 4 -176 10 -250 19 -14 2 -36 8 -51 14 -14 5 -41
10 -61 10 -20 0 -45 3 -57 7 -30 9 -27 -13 4 -25 14 -5 31 -7 39 -4 8 3 17 1
21 -5 3 -6 24 -11 45 -11 21 0 59 -9 85 -20 26 -11 66 -20 91 -20 24 0 79 -7
121 -15 85 -16 464 -45 528 -40 161 13 265 25 288 34 16 6 39 11 51 11 29 0
216 70 316 118 175 84 386 255 503 409 51 66 137 207 137 223 0 6 11 33 25 61
73 152 115 465 87 639 -27 163 -34 191 -61 276 -40 125 -80 206 -163 329 -71
105 -148 179 -323 312 -49 38 -135 104 -190 148 -54 44 -109 87 -121 95 -37
25 -425 318 -488 368 -56 45 -180 140 -331 256 -38 30 -83 66 -100 81 -16 14
-46 38 -65 53 -19 15 -65 52 -101 82 -36 30 -81 66 -99 80 -78 59 -221 194
-259 244 -74 99 -112 183 -128 284 -8 51 -23 48 -23 -5z"/>
<path d="M2540 5162 c0 -24 93 -144 179 -232 55 -56 117 -122 138 -148 21 -26
71 -79 110 -119 40 -39 73 -74 73 -77 0 -3 8 -14 18 -24 9 -10 51 -56 92 -101
41 -46 103 -112 138 -147 34 -35 62 -69 62 -74 0 -6 10 -15 23 -21 13 -6 27
-20 32 -32 6 -12 20 -26 33 -32 12 -5 25 -19 29 -30 3 -11 30 -44 59 -73 30
-29 54 -56 54 -61 0 -5 14 -21 32 -36 17 -15 56 -57 86 -93 30 -37 61 -71 68
-75 8 -4 14 -15 14 -23 0 -8 11 -19 25 -24 14 -5 25 -17 25 -25 0 -9 13 -24
30 -33 16 -9 30 -22 30 -28 0 -6 19 -31 43 -56 23 -25 67 -78 97 -117 30 -39
63 -73 72 -76 9 -3 25 -21 36 -39 24 -41 56 -80 102 -126 20 -19 49 -53 65
-75 16 -22 60 -74 98 -115 38 -41 81 -88 96 -105 16 -16 35 -40 43 -53 9 -13
40 -49 69 -82 30 -32 79 -86 109 -120 30 -34 64 -70 75 -79 55 -45 96 -91 90
-101 -13 -21 -240 2 -325 34 -19 7 -53 19 -75 25 -74 23 -175 70 -242 114 -24
16 -47 25 -53 22 -6 -4 -26 6 -45 22 -18 15 -54 44 -80 63 -25 19 -79 71 -120
115 -63 68 -92 102 -166 193 -13 16 -39 16 -39 -1 0 -16 29 -53 97 -123 28
-30 54 -62 57 -71 3 -10 21 -28 38 -40 18 -12 60 -48 93 -79 33 -30 74 -63 90
-71 17 -9 41 -24 55 -35 49 -37 103 -69 144 -85 22 -9 47 -21 54 -26 39 -31
239 -97 377 -126 139 -29 541 -60 569 -44 14 8 5 14 -48 31 -37 12 -73 22 -80
22 -30 0 -164 62 -226 104 -68 47 -176 154 -350 346 -57 63 -121 133 -141 155
-21 22 -46 51 -57 65 -11 14 -39 46 -63 72 -24 26 -55 60 -69 76 -14 16 -56
63 -95 104 -38 41 -106 114 -150 163 -44 48 -88 95 -99 104 -10 9 -26 29 -36
44 -17 27 -128 151 -257 286 -35 36 -63 68 -63 71 0 3 -24 31 -53 61 -30 29
-58 62 -63 71 -5 9 -47 58 -94 108 -191 205 -239 258 -284 310 -26 30 -62 71
-79 90 -18 20 -84 94 -147 165 -128 146 -301 325 -312 325 -5 0 -8 -4 -8 -8z"/>
<path d="M3514 5147 c-10 -26 16 -216 36 -262 5 -11 18 -48 30 -83 11 -35 27
-73 35 -85 7 -12 21 -42 31 -67 30 -77 116 -183 249 -308 35 -33 101 -82 110
-82 3 0 21 -15 39 -32 18 -18 49 -44 69 -58 21 -14 50 -36 66 -50 15 -14 57
-47 91 -75 35 -27 80 -64 99 -81 20 -17 90 -73 156 -124 66 -51 124 -97 129
-101 10 -9 10 -373 1 -549 -7 -121 -8 -118 96 -227 36 -38 93 -102 127 -143
74 -90 208 -206 277 -243 127 -66 235 -96 235 -64 0 6 -27 34 -60 60 -33 26
-60 52 -60 57 0 5 -13 31 -29 58 -53 90 -69 162 -75 332 -6 181 -20 267 -42
249 -8 -6 -18 -28 -24 -48 -12 -45 -7 -366 7 -383 12 -17 37 -147 29 -155 -12
-12 -66 34 -200 170 -230 235 -223 216 -225 582 l-2 269 -27 45 c-33 54 -90
113 -143 147 -22 13 -64 47 -94 74 -30 28 -61 50 -68 50 -7 0 -28 16 -47 35
-19 19 -39 35 -45 35 -6 0 -22 11 -35 25 -13 14 -44 37 -69 52 -66 37 -265
200 -342 280 -154 157 -267 391 -286 588 -7 83 -27 141 -39 112z"/>
<path d="M5190 3321 c0 -12 116 -117 200 -181 196 -149 243 -191 325 -295 92
-118 129 -200 174 -388 18 -75 13 -279 -8 -372 -49 -214 -161 -381 -346 -517
-124 -91 -332 -181 -480 -207 -33 -6 -82 -16 -110 -22 -64 -15 -466 -16 -520
-1 -22 6 -78 20 -125 32 -47 11 -95 27 -107 35 -12 8 -30 15 -40 15 -10 0 -27
6 -38 14 -11 7 -31 17 -45 21 -13 4 -50 25 -81 46 -31 22 -64 39 -73 39 -9 0
-16 4 -16 9 0 14 -88 83 -100 79 -13 -4 56 -88 73 -88 6 0 21 -10 34 -22 26
-25 92 -64 170 -103 29 -15 55 -30 58 -35 3 -5 12 -7 21 -3 8 3 22 -1 32 -10
61 -53 203 -85 417 -95 318 -14 575 24 737 109 10 5 39 17 66 27 59 23 187
106 195 127 4 8 12 15 18 15 23 0 174 155 209 215 50 84 100 193 107 229 2 17
12 54 21 81 14 46 22 247 13 340 -9 90 -66 284 -91 309 -5 5 -10 18 -10 27 0
17 -71 114 -141 193 -20 23 -41 51 -48 64 -6 12 -17 22 -24 22 -8 0 -26 14
-42 30 -16 17 -34 30 -40 30 -7 0 -27 15 -46 33 -68 64 -227 173 -280 192 -48
17 -59 18 -59 6z"/>
<path d="M3445 2433 c-4 -15 -11 -39 -17 -53 -13 -31 -26 -287 -18 -350 3 -25
3 -57 -1 -70 -4 -14 -7 -47 -7 -75 1 -29 3 -38 5 -21 3 16 11 39 20 52 8 13
13 36 11 51 -2 22 1 29 17 31 26 4 85 -51 85 -78 0 -12 11 -35 25 -52 14 -16
25 -35 25 -42 0 -14 58 -76 71 -76 4 0 11 -10 14 -22 10 -32 55 -78 77 -78 22
0 15 21 -21 59 -29 31 -98 112 -130 153 -12 14 -21 33 -21 41 0 8 -7 20 -15
27 -8 7 -15 18 -15 25 0 7 -8 23 -18 36 -34 44 -62 196 -62 333 0 119 -12 171
-25 109z"/>
<path d="M3394 1787 c-3 -10 -3 -46 0 -80 7 -59 10 -100 14 -174 2 -39 45 -74
65 -54 9 9 8 19 -5 44 -17 35 -37 104 -37 127 1 31 -14 126 -22 140 -6 13 -9
12 -15 -3z"/>
<path d="M3485 1460 c-4 -6 9 -17 27 -24 18 -8 44 -23 58 -34 33 -25 67 -35
75 -22 3 5 -8 18 -25 28 -18 9 -48 27 -67 40 -37 24 -58 28 -68 12z"/>
<path d="M3692 1350 c2 -20 10 -26 38 -28 19 -2 42 -10 50 -17 8 -7 32 -16 53
-20 86 -16 8 40 -83 60 -19 4 -41 12 -48 18 -11 9 -13 6 -10 -13z"/>
<path d="M0 10 c0 -7 1507 -10 4500 -10 2993 0 4500 3 4500 10 0 7 -1507 10
-4500 10 -2993 0 -4500 -3 -4500 -10z"/>
</g>
</svg>
